<svg width="44" height="50" viewBox="0 0 44 50" fill="none" xmlns="http://www.w3.org/2000/svg">
<path d="M0.0429688 6.69138H7.40599V0.20752H0.0429688V6.69138ZM0.0429688 39.2206H7.40599V10.6476H0.0429688V39.2206Z" fill="white"/>
<path d="M29.6779 10.0982C24.5678 10.0982 21.2709 12.9005 20.5566 14.494H20.3917V10.6476H13.0287V49.6607H20.3917V35.3742H20.5566C21.2709 36.9677 24.5678 39.77 29.6779 39.77C36.3267 39.77 43.4149 34.8247 43.4149 24.9341C43.4149 15.0435 36.3267 10.0982 29.6779 10.0982ZM28.1944 33.1763C24.0183 33.1763 20.2269 30.319 20.2269 24.9341C20.2269 19.5492 24.0183 16.6919 28.1944 16.6919C32.2605 16.6919 36.1069 19.6041 36.1069 24.9341C36.1069 30.2641 32.2605 33.1763 28.1944 33.1763Z" fill="white"/>
</svg>
